<svg width="176" height="176" viewBox="0 0 176 176" fill="none" xmlns="http://www.w3.org/2000/svg">
<g filter="url(#filter0_b_252_1450)">
<path d="M88 8L111.257 24.1009L139.423 26.7164L146.89 54L166.785 74.1081L154.967 99.8081L157.282 128L131.71 140.091L115.362 163.175L88 156L60.6384 163.175L44.2904 140.091L18.718 128L21.0331 99.8081L9.21538 74.1081L29.1103 54L36.577 26.7164L64.7426 24.1009L88 8Z" fill="#1D294D" fill-opacity="0.2"/>
<path d="M110.973 24.512L111.081 24.5866L111.211 24.5988L139.032 27.1823L146.407 54.132L146.442 54.2585L146.534 54.3517L166.186 74.2138L154.513 99.5992L154.458 99.7183L154.469 99.849L156.755 127.696L131.496 139.639L131.377 139.695L131.302 139.802L115.154 162.604L88.1268 155.516L88 155.483L87.8732 155.516L60.8464 162.604L44.6985 139.802L44.6227 139.695L44.5042 139.639L19.2446 127.696L21.5314 99.849L21.5421 99.7183L21.4873 99.5992L9.81427 74.2137L29.4657 54.3517L29.5579 54.2585L29.5925 54.132L36.9679 27.1823L64.7889 24.5988L64.9194 24.5866L65.0272 24.512L88 8.60812L110.973 24.512Z" stroke="#FFB26B"/>
</g>
<path d="M36.988 70.36V68.202H41.876V87H39.484V70.36H36.988ZM45.6541 85.102C47.8555 83.334 49.5801 81.8867 50.8281 80.76C52.0761 79.616 53.1248 78.4287 53.9741 77.198C54.8408 75.95 55.2741 74.728 55.2741 73.532C55.2741 72.4053 54.9968 71.5213 54.4421 70.88C53.9048 70.2213 53.0295 69.892 51.8161 69.892C50.6375 69.892 49.7188 70.2647 49.0601 71.01C48.4188 71.738 48.0721 72.7173 48.0201 73.948H45.7321C45.8015 72.0067 46.3908 70.5073 47.5001 69.45C48.6095 68.3927 50.0395 67.864 51.7901 67.864C53.5755 67.864 54.9881 68.358 56.0281 69.346C57.0855 70.334 57.6141 71.6947 57.6141 73.428C57.6141 74.8667 57.1808 76.2707 56.3141 77.64C55.4648 78.992 54.4941 80.188 53.4021 81.228C52.3101 82.2507 50.9148 83.4467 49.2161 84.816H58.1601V86.792H45.6541V85.102ZM80.9048 68.878L75.0028 80.162V87H72.6368V80.162L66.7088 68.878H69.3348L73.8068 78.056L78.2788 68.878H80.9048ZM96.4004 79.33C96.4004 79.7807 96.3744 80.2573 96.3224 80.76H84.9344C85.0211 82.164 85.4978 83.2647 86.3644 84.062C87.2484 84.842 88.3144 85.232 89.5624 85.232C90.5851 85.232 91.4344 84.998 92.1104 84.53C92.8038 84.0447 93.2891 83.4033 93.5664 82.606H96.1144C95.7331 83.9753 94.9704 85.0933 93.8264 85.96C92.6824 86.8093 91.2611 87.234 89.5624 87.234C88.2104 87.234 86.9971 86.9307 85.9224 86.324C84.8651 85.7173 84.0331 84.8593 83.4264 83.75C82.8198 82.6233 82.5164 81.3233 82.5164 79.85C82.5164 78.3767 82.8111 77.0853 83.4004 75.976C83.9898 74.8667 84.8131 74.0173 85.8704 73.428C86.9451 72.8213 88.1758 72.518 89.5624 72.518C90.9144 72.518 92.1104 72.8127 93.1504 73.402C94.1904 73.9913 94.9878 74.806 95.5424 75.846C96.1144 76.8687 96.4004 78.03 96.4004 79.33ZM93.9564 78.836C93.9564 77.9347 93.7571 77.1633 93.3584 76.522C92.9598 75.8633 92.4138 75.3693 91.7204 75.04C91.0444 74.6933 90.2904 74.52 89.4584 74.52C88.2624 74.52 87.2398 74.9013 86.3904 75.664C85.5584 76.4267 85.0818 77.484 84.9604 78.836H93.9564ZM98.6395 79.824C98.6395 78.368 98.9342 77.094 99.5235 76.002C100.113 74.8927 100.919 74.0347 101.941 73.428C102.981 72.8213 104.134 72.518 105.399 72.518C106.647 72.518 107.731 72.7867 108.649 73.324C109.568 73.8613 110.253 74.5373 110.703 75.352V72.752H113.095V87H110.703V84.348C110.235 85.18 109.533 85.8733 108.597 86.428C107.679 86.9653 106.604 87.234 105.373 87.234C104.108 87.234 102.964 86.922 101.941 86.298C100.919 85.674 100.113 84.7987 99.5235 83.672C98.9342 82.5453 98.6395 81.2627 98.6395 79.824ZM110.703 79.85C110.703 78.7753 110.487 77.8393 110.053 77.042C109.62 76.2447 109.031 75.638 108.285 75.222C107.557 74.7887 106.751 74.572 105.867 74.572C104.983 74.572 104.177 74.78 103.449 75.196C102.721 75.612 102.141 76.2187 101.707 77.016C101.274 77.8133 101.057 78.7493 101.057 79.824C101.057 80.916 101.274 81.8693 101.707 82.684C102.141 83.4813 102.721 84.0967 103.449 84.53C104.177 84.946 104.983 85.154 105.867 85.154C106.751 85.154 107.557 84.946 108.285 84.53C109.031 84.0967 109.62 83.4813 110.053 82.684C110.487 81.8693 110.703 80.9247 110.703 79.85ZM119.46 75.066C119.876 74.2513 120.465 73.6187 121.228 73.168C122.008 72.7173 122.952 72.492 124.062 72.492V74.936H123.438C120.786 74.936 119.46 76.3747 119.46 79.252V87H117.094V72.752H119.46V75.066ZM131.837 87.234C130.745 87.234 129.766 87.052 128.899 86.688C128.032 86.3067 127.348 85.7867 126.845 85.128C126.342 84.452 126.065 83.6807 126.013 82.814H128.457C128.526 83.5247 128.856 84.1053 129.445 84.556C130.052 85.0067 130.84 85.232 131.811 85.232C132.712 85.232 133.423 85.0327 133.943 84.634C134.463 84.2353 134.723 83.7327 134.723 83.126C134.723 82.502 134.446 82.0427 133.891 81.748C133.336 81.436 132.478 81.1327 131.317 80.838C130.26 80.5607 129.393 80.2833 128.717 80.006C128.058 79.7113 127.486 79.2867 127.001 78.732C126.533 78.16 126.299 77.4147 126.299 76.496C126.299 75.768 126.516 75.1007 126.949 74.494C127.382 73.8873 127.998 73.4107 128.795 73.064C129.592 72.7 130.502 72.518 131.525 72.518C133.102 72.518 134.376 72.9167 135.347 73.714C136.318 74.5113 136.838 75.6033 136.907 76.99H134.541C134.489 76.2447 134.186 75.6467 133.631 75.196C133.094 74.7453 132.366 74.52 131.447 74.52C130.598 74.52 129.922 74.702 129.419 75.066C128.916 75.43 128.665 75.9067 128.665 76.496C128.665 76.964 128.812 77.354 129.107 77.666C129.419 77.9607 129.8 78.2033 130.251 78.394C130.719 78.5673 131.36 78.7667 132.175 78.992C133.198 79.2693 134.03 79.5467 134.671 79.824C135.312 80.084 135.858 80.4827 136.309 81.02C136.777 81.5573 137.02 82.2593 137.037 83.126C137.037 83.906 136.82 84.608 136.387 85.232C135.954 85.856 135.338 86.35 134.541 86.714C133.761 87.0607 132.86 87.234 131.837 87.234Z" fill="white"/>
<path d="M44.988 112.098C44.0827 112.098 43.2473 111.888 42.482 111.468C41.726 111.039 41.124 110.446 40.676 109.69C40.2373 108.925 40.018 108.066 40.018 107.114C40.018 106.162 40.2373 105.308 40.676 104.552C41.124 103.796 41.726 103.208 42.482 102.788C43.2473 102.359 44.0827 102.144 44.988 102.144C45.9027 102.144 46.738 102.359 47.494 102.788C48.2593 103.208 48.8613 103.796 49.3 104.552C49.7387 105.308 49.958 106.162 49.958 107.114C49.958 108.066 49.7387 108.925 49.3 109.69C48.8613 110.446 48.2593 111.039 47.494 111.468C46.738 111.888 45.9027 112.098 44.988 112.098ZM44.988 110.712C45.632 110.712 46.206 110.567 46.71 110.278C47.214 109.979 47.606 109.559 47.886 109.018C48.1753 108.467 48.32 107.833 48.32 107.114C48.32 106.395 48.1753 105.765 47.886 105.224C47.606 104.683 47.214 104.267 46.71 103.978C46.206 103.689 45.632 103.544 44.988 103.544C44.344 103.544 43.77 103.689 43.266 103.978C42.762 104.267 42.3653 104.683 42.076 105.224C41.796 105.765 41.656 106.395 41.656 107.114C41.656 107.833 41.796 108.467 42.076 109.018C42.3653 109.559 42.762 109.979 43.266 110.278C43.77 110.567 44.344 110.712 44.988 110.712ZM54.7625 105.588H53.3345V112H51.7245V105.588H50.8145V104.286H51.7245V103.74C51.7245 102.853 51.9578 102.209 52.4245 101.808C52.9005 101.397 53.6425 101.192 54.6505 101.192V102.522C54.1652 102.522 53.8245 102.615 53.6285 102.802C53.4325 102.979 53.3345 103.292 53.3345 103.74V104.286H54.7625V105.588ZM61.4097 103.558V106.414H64.7697V107.716H61.4097V110.698H65.1897V112H59.8137V102.256H65.1897V103.558H61.4097ZM70.4595 108.094L72.9515 112H71.1455L69.4795 109.382L67.9115 112H66.2455L68.7375 108.206L66.2455 104.286H68.0515L69.7175 106.904L71.2855 104.286H72.9515L70.4595 108.094ZM75.7378 105.42C76.0085 105.065 76.3771 104.767 76.8438 104.524C77.3105 104.281 77.8378 104.16 78.4258 104.16C79.0978 104.16 79.7091 104.328 80.2598 104.664C80.8198 104.991 81.2585 105.453 81.5758 106.05C81.8931 106.647 82.0518 107.333 82.0518 108.108C82.0518 108.883 81.8931 109.578 81.5758 110.194C81.2585 110.801 80.8198 111.277 80.2598 111.622C79.7091 111.958 79.0978 112.126 78.4258 112.126C77.8378 112.126 77.3151 112.009 76.8578 111.776C76.4005 111.533 76.0271 111.235 75.7378 110.88V115.668H74.1418V104.286H75.7378V105.42ZM80.4278 108.108C80.4278 107.576 80.3158 107.119 80.0918 106.736C79.8771 106.344 79.5878 106.05 79.2238 105.854C78.8691 105.649 78.4865 105.546 78.0758 105.546C77.6745 105.546 77.2918 105.649 76.9278 105.854C76.5731 106.059 76.2838 106.358 76.0598 106.75C75.8451 107.142 75.7378 107.604 75.7378 108.136C75.7378 108.668 75.8451 109.135 76.0598 109.536C76.2838 109.928 76.5731 110.227 76.9278 110.432C77.2918 110.637 77.6745 110.74 78.0758 110.74C78.4865 110.74 78.8691 110.637 79.2238 110.432C79.5878 110.217 79.8771 109.909 80.0918 109.508C80.3158 109.107 80.4278 108.64 80.4278 108.108ZM90.7001 107.954C90.7001 108.243 90.6814 108.505 90.6441 108.738H84.7501C84.7967 109.354 85.0254 109.849 85.4361 110.222C85.8467 110.595 86.3507 110.782 86.9481 110.782C87.8067 110.782 88.4134 110.423 88.7681 109.704H90.4901C90.2567 110.413 89.8321 110.997 89.2161 111.454C88.6094 111.902 87.8534 112.126 86.9481 112.126C86.2107 112.126 85.5481 111.963 84.9601 111.636C84.3814 111.3 83.9241 110.833 83.5881 110.236C83.2614 109.629 83.0981 108.929 83.0981 108.136C83.0981 107.343 83.2567 106.647 83.5741 106.05C83.9007 105.443 84.3534 104.977 84.9321 104.65C85.5201 104.323 86.1921 104.16 86.9481 104.16C87.6761 104.16 88.3247 104.319 88.8941 104.636C89.4634 104.953 89.9067 105.401 90.2241 105.98C90.5414 106.549 90.7001 107.207 90.7001 107.954ZM89.0341 107.45C89.0247 106.862 88.8147 106.391 88.4041 106.036C87.9934 105.681 87.4847 105.504 86.8781 105.504C86.3274 105.504 85.8561 105.681 85.4641 106.036C85.0721 106.381 84.8387 106.853 84.7641 107.45H89.0341ZM93.8667 105.406C94.1 105.014 94.408 104.711 94.7907 104.496C95.1827 104.272 95.6447 104.16 96.1767 104.16V105.812H95.7707C95.1454 105.812 94.6694 105.971 94.3427 106.288C94.0254 106.605 93.8667 107.156 93.8667 107.94V112H92.2707V104.286H93.8667V105.406ZM98.4558 103.264C98.1664 103.264 97.9238 103.166 97.7278 102.97C97.5318 102.774 97.4338 102.531 97.4338 102.242C97.4338 101.953 97.5318 101.71 97.7278 101.514C97.9238 101.318 98.1664 101.22 98.4558 101.22C98.7358 101.22 98.9738 101.318 99.1698 101.514C99.3658 101.71 99.4638 101.953 99.4638 102.242C99.4638 102.531 99.3658 102.774 99.1698 102.97C98.9738 103.166 98.7358 103.264 98.4558 103.264ZM99.2398 104.286V112H97.6438V104.286H99.2398ZM108.405 107.954C108.405 108.243 108.386 108.505 108.349 108.738H102.455C102.502 109.354 102.73 109.849 103.141 110.222C103.552 110.595 104.056 110.782 104.653 110.782C105.512 110.782 106.118 110.423 106.473 109.704H108.195C107.962 110.413 107.537 110.997 106.921 111.454C106.314 111.902 105.558 112.126 104.653 112.126C103.916 112.126 103.253 111.963 102.665 111.636C102.086 111.3 101.629 110.833 101.293 110.236C100.966 109.629 100.803 108.929 100.803 108.136C100.803 107.343 100.962 106.647 101.279 106.05C101.606 105.443 102.058 104.977 102.637 104.65C103.225 104.323 103.897 104.16 104.653 104.16C105.381 104.16 106.03 104.319 106.599 104.636C107.168 104.953 107.612 105.401 107.929 105.98C108.246 106.549 108.405 107.207 108.405 107.954ZM106.739 107.45C106.73 106.862 106.52 106.391 106.109 106.036C105.698 105.681 105.19 105.504 104.583 105.504C104.032 105.504 103.561 105.681 103.169 106.036C102.777 106.381 102.544 106.853 102.469 107.45H106.739ZM113.868 104.16C114.474 104.16 115.016 104.286 115.492 104.538C115.977 104.79 116.355 105.163 116.626 105.658C116.896 106.153 117.032 106.75 117.032 107.45V112H115.45V107.688C115.45 106.997 115.277 106.47 114.932 106.106C114.586 105.733 114.115 105.546 113.518 105.546C112.92 105.546 112.444 105.733 112.09 106.106C111.744 106.47 111.572 106.997 111.572 107.688V112H109.976V104.286H111.572V105.168C111.833 104.851 112.164 104.603 112.566 104.426C112.976 104.249 113.41 104.16 113.868 104.16ZM118.536 108.136C118.536 107.343 118.694 106.647 119.012 106.05C119.338 105.443 119.786 104.977 120.356 104.65C120.925 104.323 121.578 104.16 122.316 104.16C123.249 104.16 124.019 104.384 124.626 104.832C125.242 105.271 125.657 105.901 125.872 106.722H124.15C124.01 106.339 123.786 106.041 123.478 105.826C123.17 105.611 122.782 105.504 122.316 105.504C121.662 105.504 121.14 105.737 120.748 106.204C120.365 106.661 120.174 107.305 120.174 108.136C120.174 108.967 120.365 109.615 120.748 110.082C121.14 110.549 121.662 110.782 122.316 110.782C123.24 110.782 123.851 110.376 124.15 109.564H125.872C125.648 110.348 125.228 110.973 124.612 111.44C123.996 111.897 123.23 112.126 122.316 112.126C121.578 112.126 120.925 111.963 120.356 111.636C119.786 111.3 119.338 110.833 119.012 110.236C118.694 109.629 118.536 108.929 118.536 108.136ZM134.532 107.954C134.532 108.243 134.513 108.505 134.476 108.738H128.582C128.629 109.354 128.857 109.849 129.268 110.222C129.679 110.595 130.183 110.782 130.78 110.782C131.639 110.782 132.245 110.423 132.6 109.704H134.322C134.089 110.413 133.664 110.997 133.048 111.454C132.441 111.902 131.685 112.126 130.78 112.126C130.043 112.126 129.38 111.963 128.792 111.636C128.213 111.3 127.756 110.833 127.42 110.236C127.093 109.629 126.93 108.929 126.93 108.136C126.93 107.343 127.089 106.647 127.406 106.05C127.733 105.443 128.185 104.977 128.764 104.65C129.352 104.323 130.024 104.16 130.78 104.16C131.508 104.16 132.157 104.319 132.726 104.636C133.295 104.953 133.739 105.401 134.056 105.98C134.373 106.549 134.532 107.207 134.532 107.954ZM132.866 107.45C132.857 106.862 132.647 106.391 132.236 106.036C131.825 105.681 131.317 105.504 130.71 105.504C130.159 105.504 129.688 105.681 129.296 106.036C128.904 106.381 128.671 106.853 128.596 107.45H132.866Z" fill="white"/>
<defs>
<filter id="filter0_b_252_1450" x="1.21484" y="0" width="173.57" height="171.175" filterUnits="userSpaceOnUse" color-interpolation-filters="sRGB">
<feFlood flood-opacity="0" result="BackgroundImageFix"/>
<feGaussianBlur in="BackgroundImageFix" stdDeviation="4"/>
<feComposite in2="SourceAlpha" operator="in" result="effect1_backgroundBlur_252_1450"/>
<feBlend mode="normal" in="SourceGraphic" in2="effect1_backgroundBlur_252_1450" result="shape"/>
</filter>
</defs>
</svg>
